<svg width="16" height="16" viewBox="0 0 16 16" fill="none" xmlns="http://www.w3.org/2000/svg">
<g clip-path="url(#clip0_1115_784)">
<path d="M9.01958 5.56807C8.63796 5.84013 8.17096 6.00016 7.66659 6.00016C6.37792 6.00016 5.33325 4.95549 5.33325 3.66683C5.33325 2.37816 6.37792 1.3335 7.66659 1.3335C8.50191 1.3335 9.23471 1.77244 9.64692 2.43226M3.99992 13.3916H5.74011C5.967 13.3916 6.19251 13.4186 6.41246 13.4726L8.25118 13.9194C8.65015 14.0166 9.06577 14.0261 9.4689 13.9478L11.5019 13.5522C12.0389 13.4476 12.533 13.1905 12.9201 12.8138L14.3585 11.4146C14.7693 11.0157 14.7693 10.3685 14.3585 9.96887C13.9887 9.60912 13.4031 9.56862 12.9847 9.8737L11.3083 11.0967C11.0682 11.2722 10.7761 11.3667 10.4757 11.3667H8.85692L9.8873 11.3667C10.4681 11.3667 10.9385 10.909 10.9385 10.3441V10.1396C10.9385 9.6705 10.6103 9.26147 10.1426 9.14808L8.55231 8.76132C8.29351 8.69855 8.02845 8.66683 7.76201 8.66683C7.11881 8.66683 5.95451 9.19937 5.95451 9.19937L3.99992 10.0168M13.3333 4.3335C13.3333 5.62216 12.2886 6.66683 10.9999 6.66683C9.71125 6.66683 8.66659 5.62216 8.66659 4.3335C8.66659 3.04483 9.71125 2.00016 10.9999 2.00016C12.2886 2.00016 13.3333 3.04483 13.3333 4.3335ZM1.33325 9.7335L1.33325 13.6002C1.33325 13.9735 1.33325 14.1602 1.40591 14.3028C1.46983 14.4283 1.57182 14.5303 1.69726 14.5942C1.83987 14.6668 2.02655 14.6668 2.39992 14.6668H2.93325C3.30662 14.6668 3.4933 14.6668 3.63591 14.5942C3.76135 14.5303 3.86334 14.4283 3.92726 14.3028C3.99992 14.1602 3.99992 13.9735 3.99992 13.6002V9.7335C3.99992 9.36013 3.99992 9.17344 3.92726 9.03084C3.86334 8.90539 3.76135 8.80341 3.63591 8.73949C3.4933 8.66683 3.30662 8.66683 2.93325 8.66683L2.39992 8.66683C2.02655 8.66683 1.83987 8.66683 1.69726 8.73949C1.57182 8.80341 1.46983 8.90539 1.40591 9.03084C1.33325 9.17344 1.33325 9.36013 1.33325 9.7335Z" stroke="#A5A5A6" stroke-width="1.33333" stroke-linecap="round" stroke-linejoin="round"/>
</g>
<defs>
<clipPath id="clip0_1115_784">
<rect width="16" height="16" fill="white"/>
</clipPath>
</defs>
</svg>
