<svg width="16" height="14" viewBox="0 0 16 14" fill="none" xmlns="http://www.w3.org/2000/svg">
<path d="M8.66659 2.33333C8.66659 3.06971 7.02496 3.66667 4.99992 3.66667C2.97487 3.66667 1.33325 3.06971 1.33325 2.33333M8.66659 2.33333C8.66659 1.59695 7.02496 1 4.99992 1C2.97487 1 1.33325 1.59695 1.33325 2.33333M8.66659 2.33333V3.33333M1.33325 2.33333V10.3333C1.33325 11.0697 2.97487 11.6667 4.99992 11.6667M4.99992 6.33333C4.88756 6.33333 4.77637 6.3315 4.66658 6.3279C2.79775 6.26666 1.33325 5.69552 1.33325 5M4.99992 9C2.97487 9 1.33325 8.40305 1.33325 7.66667M14.6666 6.66667C14.6666 7.40305 13.025 8 10.9999 8C8.97487 8 7.33325 7.40305 7.33325 6.66667M14.6666 6.66667C14.6666 5.93029 13.025 5.33333 10.9999 5.33333C8.97487 5.33333 7.33325 5.93029 7.33325 6.66667M14.6666 6.66667V11.6667C14.6666 12.403 13.025 13 10.9999 13C8.97487 13 7.33325 12.403 7.33325 11.6667V6.66667M14.6666 9.16667C14.6666 9.90305 13.025 10.5 10.9999 10.5C8.97487 10.5 7.33325 9.90305 7.33325 9.16667" stroke="#A5A5A6" stroke-width="1.33333" stroke-linecap="round" stroke-linejoin="round"/>
</svg>
