<svg width="56" height="56" viewBox="0 0 56 56" fill="none" xmlns="http://www.w3.org/2000/svg">
<rect width="56" height="56" rx="16" fill="#111213"/>
<g clip-path="url(#clip0_1109_807)">
<path d="M26.0599 26.0002C26.2167 25.5546 26.526 25.1789 26.9332 24.9396C27.3404 24.7003 27.8192 24.6128 28.2847 24.6926C28.7502 24.7725 29.1725 25.0145 29.4766 25.3758C29.7808 25.7372 29.9473 26.1945 29.9466 26.6668C29.9466 28.0002 27.9466 28.6668 27.9466 28.6668M27.9999 31.3335H28.0066M34.6666 28.0002C34.6666 31.6821 31.6818 34.6668 27.9999 34.6668C24.318 34.6668 21.3333 31.6821 21.3333 28.0002C21.3333 24.3183 24.318 21.3335 27.9999 21.3335C31.6818 21.3335 34.6666 24.3183 34.6666 28.0002Z" stroke="white" stroke-opacity="0.8" stroke-width="1.33333" stroke-linecap="round" stroke-linejoin="round"/>
</g>
<defs>
<clipPath id="clip0_1109_807">
<rect width="16" height="16" fill="white" transform="translate(20 20)"/>
</clipPath>
</defs>
</svg>
