<svg width="56" height="64" viewBox="0 0 56 64" fill="none" xmlns="http://www.w3.org/2000/svg">
<path d="M31.7908 16.708C31.7908 16.1403 31.33 15.6766 30.7634 15.7124C28.9717 15.8254 27.2084 16.2335 25.5454 16.9223C23.5654 17.7424 21.7663 18.9445 20.2509 20.46C18.7355 21.9754 17.5334 23.7745 16.7132 25.7545C15.8931 27.7345 15.4709 29.8567 15.4709 31.9998C15.4709 34.143 15.8931 36.2651 16.7132 38.2452C17.5334 40.2252 18.7355 42.0242 20.2509 43.5397C21.7663 45.0551 23.5654 46.2572 25.5454 47.0774C27.2084 47.7662 28.9717 48.1743 30.7634 48.2873C31.33 48.323 31.7908 47.8594 31.7908 47.2916L31.7908 16.708Z" fill="url(#paint0_linear_1109_767)"/>
<path d="M40.5291 20.0495C40.5291 19.4817 40.068 19.0171 39.5022 19.0638C36.5041 19.3114 33.676 20.637 31.5335 22.8229C29.1477 25.2568 27.8074 28.558 27.8074 32.0002C27.8074 35.4424 29.1477 38.7436 31.5335 41.1776C33.676 43.3634 36.5041 44.689 39.5022 44.9366C40.068 44.9834 40.5291 44.5187 40.5291 43.9509V20.0495Z" fill="url(#paint1_linear_1109_767)"/>
<defs>
<linearGradient id="paint0_linear_1109_767" x1="15.273" y1="51.7494" x2="40.8138" y2="11.6017" gradientUnits="userSpaceOnUse">
<stop stop-color="#0194FF"/>
<stop offset="1" stop-color="#1FF8D1"/>
</linearGradient>
<linearGradient id="paint1_linear_1109_767" x1="27.6531" y1="47.6885" x2="48.1014" y2="16.1459" gradientUnits="userSpaceOnUse">
<stop stop-color="#0194FF"/>
<stop offset="1" stop-color="#1FF8D1"/>
</linearGradient>
</defs>
</svg>
